<?xml version="1.0" standalone="no"?>
<!DOCTYPE svg PUBLIC "-//W3C//DTD SVG 20010904//EN"
 "http://www.w3.org/TR/2001/REC-SVG-20010904/DTD/svg10.dtd">
<svg version="1.0" xmlns="http://www.w3.org/2000/svg"
 width="500.000000pt" height="500.000000pt" viewBox="0 0 500.000000 500.000000"
 preserveAspectRatio="xMidYMid meet">
<metadata>
Created by potrace 1.14, written by Peter Selinger 2001-2017
</metadata>
<g transform="translate(0.000000,500.000000) scale(0.100000,-0.100000)"
fill="#000000" stroke="none">
<path d="M0 2500 l0 -2500 2500 0 2500 0 0 2500 0 2500 -2500 0 -2500 0 0
-2500z m1971 1383 c8 -9 14 -26 14 -37 0 -15 7 -22 24 -24 93 -14 93 -100 0
-120 -48 -10 -279 -6 -307 5 -21 8 -18 12 47 63 67 53 187 130 202 130 3 0 13
-7 20 -17z m1323 -149 c119 -102 247 -272 305 -409 20 -48 21 -53 6 -88 -17
-42 -41 -52 -120 -51 -31 0 -61 7 -78 18 -26 17 -29 17 -46 2 -15 -14 -28 -15
-85 -7 -77 11 -91 20 -107 66 -12 32 -14 33 -75 37 -44 3 -72 10 -92 25 -27
20 -28 20 -51 2 -32 -26 -69 -24 -113 6 -20 14 -42 25 -47 25 -16 0 -13 17 3
23 7 3 16 19 19 35 5 23 14 33 42 42 27 9 35 17 35 36 0 45 27 82 67 93 20 6
47 8 60 5 14 -4 34 1 49 11 l25 16 -25 24 c-55 51 -19 113 84 148 44 15 69 5
144 -59z m-1644 -73 c0 -17 -49 -69 -71 -74 -23 -6 -23 -7 35 61 20 23 36 29
36 13z m746 -18 c11 -16 28 -45 37 -65 10 -20 22 -40 28 -43 5 -4 7 -16 4 -28
-5 -20 -5 -20 5 -4 6 10 30 29 52 43 51 32 64 28 156 -56 17 -16 32 -39 32
-50 0 -12 11 -42 25 -68 14 -26 25 -52 25 -58 0 -19 31 -39 57 -36 13 2 30 -1
37 -7 9 -7 24 -4 54 10 62 31 108 18 139 -40 13 -24 38 -54 57 -67 41 -28 60
-71 48 -105 -5 -13 -7 -49 -5 -80 7 -71 -13 -198 -34 -221 -18 -20 -45 -23
-74 -8 -17 10 -19 22 -19 115 0 93 -2 105 -17 105 -36 0 -59 -12 -68 -33 -14
-30 -52 -33 -87 -7 -29 21 -32 21 -67 7 -20 -9 -45 -17 -56 -19 -17 -3 -21
-12 -23 -58 -5 -77 -36 -106 -94 -89 -15 4 -30 4 -33 0 -2 -5 -5 -47 -6 -95
-2 -70 -6 -89 -18 -93 -9 -3 -25 -9 -37 -15 -11 -5 -36 -8 -55 -6 l-34 3 -3
103 -3 102 -39 0 c-45 0 -70 26 -70 72 0 22 -5 28 -21 28 -12 0 -27 -8 -34
-17 -12 -17 -15 -17 -49 0 -48 22 -49 22 -69 -13 -23 -37 -68 -41 -91 -8 -15
21 -16 21 -35 4 -14 -13 -28 -16 -46 -12 -24 6 -25 4 -25 -37 0 -50 -13 -67
-52 -67 -54 0 -68 28 -68 140 0 91 -2 100 -19 100 -37 0 -46 25 -32 93 7 34
16 79 20 99 8 52 61 105 117 119 24 6 47 15 50 20 3 5 15 9 27 9 12 0 28 9 35
21 11 17 21 20 58 17 l46 -3 44 87 c47 91 167 238 195 238 8 0 24 -12 35 -27z
m417 -813 c4 -16 14 -20 47 -20 33 0 43 4 47 20 3 11 14 20 24 20 16 0 19 -8
19 -45 0 -29 -5 -48 -13 -51 -7 -2 -47 -6 -87 -7 l-74 -2 0 52 c-1 43 2 53 15
53 9 0 19 -9 22 -20z m-757 -111 c14 -5 45 -9 70 -9 l44 0 0 40 c0 36 3 40 25
40 23 0 25 -4 25 -40 0 -23 5 -40 11 -40 6 0 9 -6 6 -14 -9 -22 26 -46 66 -46
l37 0 0 -100 0 -100 64 0 c36 0 68 5 71 10 3 6 17 10 30 10 16 0 25 7 29 25 5
19 13 25 34 25 50 0 72 25 72 81 0 41 3 49 19 49 10 0 21 9 24 21 5 17 12 20
48 17 l42 -3 4 -47 4 -47 -38 -6 c-83 -13 -88 -16 -91 -68 l-3 -47 -53 0 c-52
0 -54 -1 -60 -31 -3 -17 -6 -51 -6 -74 0 -45 -10 -55 -56 -55 -22 0 -24 -4
-24 -45 l0 -45 -54 0 c-66 0 -65 -1 -63 127 l2 93 -72 0 -73 0 0 94 0 94 -107
-1 -107 -2 -7 33 c-4 22 -2 37 7 47 8 7 14 27 14 44 0 41 34 49 38 8 2 -19 11
-31 28 -38z m1332 -89 c48 -13 90 -58 94 -100 3 -35 4 -35 58 -41 30 -3 67
-12 82 -20 l27 -14 -33 -82 c-18 -44 -49 -109 -70 -143 -20 -35 -34 -65 -31
-68 3 -3 120 -8 260 -10 l255 -5 0 -63 0 -64 359 -2 359 -3 -134 -150 c-73
-82 -133 -156 -133 -163 -1 -12 138 -177 243 -289 l30 -33 -423 0 -424 0 7 70
6 70 -1421 0 -1422 0 6 -70 6 -70 -421 0 c-400 0 -420 1 -406 18 183 208 258
297 256 303 -2 4 -63 76 -137 161 l-134 153 361 3 362 2 0 64 0 63 255 5 c140
2 257 7 260 10 4 3 -8 28 -24 55 -44 71 -85 164 -116 266 -33 105 -30 110 58
103 39 -3 66 -11 80 -24 15 -13 43 -21 87 -26 51 -5 70 -12 92 -33 40 -39 53
-83 34 -126 -15 -37 -13 -47 13 -47 9 0 22 -9 29 -20 7 -11 18 -20 26 -20 8 0
17 -7 20 -16 4 -11 10 -13 19 -7 24 20 58 21 109 5 31 -10 53 -24 56 -34 2
-10 8 -16 12 -13 11 7 26 -15 34 -49 l7 -29 212 7 c226 7 314 20 322 47 7 20
47 39 85 39 29 0 30 2 30 48 0 41 4 49 29 63 22 13 30 26 35 63 7 42 10 46 35
46 57 0 91 12 91 31 0 29 18 23 42 -16 16 -25 30 -35 48 -35 15 0 31 -5 38
-12 9 -9 19 -5 45 20 19 18 51 38 73 43 50 14 61 24 69 59 6 29 51 70 89 82
32 9 88 9 124 -2z m-2038 -1130 c0 -5 -7 -10 -15 -10 -12 0 -15 -13 -15 -60 0
-47 -3 -60 -15 -60 -12 0 -15 13 -15 60 0 47 -3 60 -15 60 -8 0 -15 5 -15 10
0 6 20 10 45 10 25 0 45 -4 45 -10z m130 0 c0 -5 -13 -10 -30 -10 -23 0 -30
-4 -30 -20 0 -13 7 -20 20 -20 11 0 20 -4 20 -10 0 -5 -9 -10 -20 -10 -13 0
-20 -7 -20 -20 0 -15 7 -20 24 -20 14 0 28 -4 31 -10 4 -6 -13 -10 -44 -10
l-51 0 0 63 c0 35 3 67 7 70 10 11 93 8 93 -3z m114 -6 c5 -13 1 -14 -24 -9
l-30 7 0 -52 0 -52 30 7 c25 5 29 4 24 -9 -7 -19 -55 -21 -72 -4 -7 7 -12 33
-12 58 0 25 5 51 12 58 17 17 65 15 72 -4z m74 -12 c5 -31 32 -28 32 3 0 16 6
25 15 25 12 0 15 -14 15 -70 0 -54 -3 -70 -14 -70 -10 0 -16 13 -18 37 -4 52
-28 56 -28 4 0 -34 -3 -41 -20 -41 -18 0 -20 7 -20 63 0 35 3 67 7 71 12 11
28 0 31 -22z m236 12 c5 -13 1 -14 -24 -9 l-30 7 0 -52 0 -52 30 7 c25 5 29 4
24 -9 -7 -19 -55 -21 -72 -4 -16 16 -15 95 1 113 17 19 63 19 71 -1z m124 4
c7 -7 12 -33 12 -58 0 -53 -13 -70 -51 -70 -31 0 -39 15 -39 70 0 21 3 45 6
54 7 19 55 21 72 4z m86 -10 c8 -13 8 -23 -2 -38 -6 -11 -12 -33 -12 -50 0
-20 -5 -30 -15 -30 -12 0 -15 15 -15 71 0 60 2 70 16 67 9 -2 22 -11 28 -20z
m46 -48 c0 -53 -3 -70 -14 -70 -19 0 -27 39 -20 94 4 29 12 46 20 46 11 0 14
-18 14 -70z m130 60 c0 -5 -13 -10 -30 -10 -23 0 -30 -4 -30 -20 0 -13 7 -20
20 -20 11 0 20 -4 20 -10 0 -5 -9 -10 -20 -10 -16 0 -20 -7 -20 -30 0 -20 -5
-30 -15 -30 -12 0 -15 14 -15 70 l0 70 45 0 c25 0 45 -4 45 -10z m120 0 c0 -5
-13 -10 -30 -10 -23 0 -30 -4 -30 -20 0 -15 7 -20 25 -20 14 0 25 -4 25 -10 0
-5 -11 -10 -25 -10 -18 0 -25 -5 -25 -20 0 -16 7 -20 30 -20 17 0 30 -4 30
-10 0 -5 -20 -10 -45 -10 l-45 0 0 70 0 70 45 0 c25 0 45 -4 45 -10z m116 -4
c17 -18 19 -66 2 -66 -9 0 -9 -3 0 -12 17 -17 15 -48 -2 -48 -8 0 -16 10 -18
22 -5 32 -28 35 -28 4 0 -19 -5 -26 -20 -26 -18 0 -20 7 -20 63 0 35 3 67 7
70 12 12 64 7 79 -7z m134 4 c0 -5 -13 -10 -30 -10 -23 0 -30 -4 -30 -20 0
-13 7 -20 19 -20 11 0 23 -4 26 -10 4 -6 -5 -10 -19 -10 -19 0 -26 -5 -26 -20
0 -16 7 -20 30 -20 17 0 30 -4 30 -10 0 -5 -20 -10 -45 -10 l-45 0 0 70 0 70
45 0 c25 0 45 -4 45 -10z m68 -3 c7 -8 9 -35 5 -70 -5 -47 -9 -57 -24 -57 -17
0 -19 8 -19 63 0 76 12 96 38 64z m62 -57 c0 -56 -3 -70 -15 -70 -8 0 -15 7
-15 15 0 8 -4 15 -10 15 -5 0 -10 11 -10 25 0 14 5 25 10 25 6 0 10 14 10 30
0 20 5 30 15 30 12 0 15 -14 15 -70z m114 54 c5 -13 1 -14 -24 -9 l-30 7 0
-52 0 -52 30 7 c25 5 29 4 24 -9 -7 -19 -55 -21 -72 -4 -16 16 -16 100 0 116
17 17 65 15 72 -4z m136 6 c0 -5 -13 -10 -30 -10 -23 0 -30 -4 -30 -20 0 -13
7 -20 20 -20 11 0 20 -4 20 -10 0 -5 -9 -10 -20 -10 -13 0 -20 -7 -20 -20 0
-15 7 -20 24 -20 14 0 28 -4 31 -10 4 -6 -13 -10 -44 -10 l-51 0 0 63 c0 35 3
67 7 70 10 11 93 8 93 -3z m188 -2 c7 -7 12 -31 12 -55 0 -41 -1 -43 -30 -43
-16 0 -30 5 -30 11 0 5 -4 7 -10 4 -20 -12 -9 -25 20 -25 17 0 30 -4 30 -10 0
-14 -64 -12 -78 2 -16 16 -15 95 1 113 15 17 69 19 85 3z m72 -48 c0 -53 2
-60 19 -60 11 0 23 -4 26 -10 4 -6 -10 -10 -34 -10 l-41 0 0 70 c0 56 3 70 15
70 12 0 15 -13 15 -60z m110 35 c0 -16 6 -25 15 -25 9 0 15 9 15 25 0 16 6 25
15 25 9 0 15 -9 15 -24 0 -13 -7 -29 -15 -36 -8 -7 -15 -28 -15 -46 0 -24 -5
-34 -15 -34 -11 0 -15 11 -15 40 0 27 -5 43 -15 46 -8 4 -15 17 -15 30 0 15 6
24 15 24 9 0 15 -9 15 -25z m178 13 c16 -16 16 -100 0 -116 -17 -17 -65 -15
-72 4 -3 9 -6 33 -6 54 0 21 3 45 6 54 7 19 55 21 72 4z m86 -10 c8 -13 8 -23
-2 -38 -6 -11 -12 -33 -12 -50 0 -20 -5 -30 -15 -30 -12 0 -15 15 -15 71 0 60
2 70 16 67 9 -2 22 -11 28 -20z m46 -48 c0 -53 -3 -70 -14 -70 -19 0 -27 39
-20 94 4 29 12 46 20 46 11 0 14 -18 14 -70z"/>
<path d="M980 1835 l0 -305 1520 0 1520 0 0 70 c0 56 -3 70 -15 70 -9 0 -15
-9 -15 -25 0 -25 -1 -25 -80 -25 -62 0 -82 3 -86 15 -4 8 -12 15 -20 15 -8 0
-14 10 -14 25 0 14 -4 25 -10 25 -5 0 -10 14 -10 30 0 27 3 30 30 30 20 0 30
-5 30 -15 0 -8 7 -15 15 -15 8 0 15 -4 15 -10 0 -5 16 -10 35 -10 33 0 35 2
35 35 l0 35 -49 0 c-34 0 -51 4 -55 15 -3 8 -12 15 -21 15 -9 0 -15 9 -15 25
0 14 -4 25 -10 25 -6 0 -10 27 -10 60 0 33 4 60 10 60 6 0 10 11 10 25 0 25 1
25 83 25 89 0 111 -12 119 -61 2 -12 9 -24 16 -27 9 -3 12 21 12 97 l0 101
-1520 0 -1520 0 0 -305z m230 180 c0 -8 4 -15 9 -15 5 0 12 -13 16 -30 4 -16
11 -30 16 -30 5 0 9 -11 9 -25 0 -20 -5 -25 -26 -25 -16 0 -36 11 -50 25 -13
14 -30 25 -39 25 -9 0 -15 -9 -15 -25 0 -16 -6 -25 -15 -25 -24 0 -21 -148 3
-166 29 -22 52 -17 52 11 0 21 5 25 28 25 15 0 35 -9 45 -20 21 -25 23 -70 2
-70 -9 0 -15 -9 -15 -25 0 -24 -2 -25 -70 -25 -56 0 -70 3 -70 15 0 8 -7 15
-15 15 -9 0 -15 9 -15 21 0 11 -7 27 -16 36 -8 9 -13 22 -10 29 3 8 -1 14 -9
14 -12 0 -15 17 -15 85 0 66 3 85 14 85 9 0 12 7 9 19 -2 10 3 25 11 34 9 8
16 25 16 36 0 19 6 21 75 21 60 0 75 -3 75 -15z m173 -5 c14 -17 17 -42 17
-160 l0 -140 55 0 c40 0 55 -4 55 -14 0 -8 7 -16 15 -20 8 -3 15 -17 15 -31
l0 -25 -100 0 c-82 0 -100 3 -100 15 0 8 -7 15 -15 15 -13 0 -15 28 -15 190
l0 190 28 0 c15 0 35 -9 45 -20z m347 5 c0 -8 7 -15 15 -15 8 0 15 -9 15 -19
0 -11 7 -26 15 -35 8 -8 15 -24 15 -35 0 -12 5 -21 10 -21 6 0 10 -33 10 -80
0 -47 -4 -80 -10 -80 -5 0 -10 -13 -10 -30 0 -20 -5 -30 -15 -30 -9 0 -15 -9
-15 -25 0 -24 -3 -25 -55 -25 -40 0 -57 4 -61 15 -4 8 -12 15 -20 15 -8 0 -14
10 -14 25 0 16 -6 25 -15 25 -9 0 -15 9 -15 25 0 14 -4 25 -10 25 -6 0 -10 35
-10 85 0 50 4 85 10 85 6 0 10 14 10 30 0 20 5 30 15 30 9 0 15 9 15 25 0 24
3 25 60 25 47 0 60 -3 60 -15z m170 1 c0 -8 7 -16 15 -20 12 -4 15 -30 15
-146 l0 -140 35 0 35 0 0 160 0 160 30 0 c20 0 30 -5 30 -15 0 -8 7 -15 15
-15 13 0 15 -25 15 -165 0 -140 -2 -165 -15 -165 -9 0 -15 -9 -15 -25 0 -25
-1 -25 -85 -25 -69 0 -85 3 -85 15 0 8 -7 15 -15 15 -9 0 -15 9 -15 25 0 14
-4 25 -10 25 -6 0 -10 62 -10 165 l0 165 30 0 c19 0 30 -5 30 -14z m380 -1 c0
-8 7 -15 15 -15 10 0 15 -10 15 -30 0 -20 5 -30 15 -30 9 0 15 -9 15 -24 0
-13 6 -26 14 -29 19 -8 19 -147 -1 -154 -7 -3 -13 -18 -13 -34 0 -19 -5 -29
-15 -29 -9 0 -15 -9 -15 -25 0 -25 -1 -25 -85 -25 -69 0 -85 3 -85 15 0 8 -7
15 -15 15 -13 0 -15 28 -15 190 l0 190 85 0 c69 0 85 -3 85 -15z m540 0 c0 -8
6 -15 14 -15 9 0 16 -18 21 -55 3 -30 11 -55 16 -55 5 0 9 -11 9 -24 0 -14 4
-28 10 -31 5 -3 8 -28 7 -55 -2 -33 1 -51 10 -54 8 -3 12 -21 10 -53 -2 -44
-4 -48 -30 -51 -18 -2 -29 2 -33 12 -3 9 -12 16 -20 16 -10 0 -14 13 -14 41 0
39 -1 40 -32 37 -31 -3 -33 -5 -35 -45 0 -24 -2 -47 -2 -53 -2 -17 -61 -12
-61 5 0 8 -7 15 -15 15 -12 0 -15 13 -15 55 0 30 4 55 9 55 4 0 11 32 13 72 4
43 11 76 19 82 8 6 15 20 16 31 9 80 13 85 59 85 32 0 44 -4 44 -15z m210 0
c0 -8 7 -15 15 -15 13 0 15 -23 15 -145 l0 -145 48 0 c54 0 82 -22 82 -65 0
-25 0 -25 -95 -25 -74 0 -95 3 -95 14 0 7 -8 16 -18 18 -16 5 -17 20 -16 184
1 98 2 182 3 187 1 4 15 7 31 7 20 0 30 -5 30 -15z m380 0 c0 -8 7 -15 15 -15
10 0 15 -10 15 -30 0 -20 5 -30 15 -30 11 0 15 -12 15 -50 0 -36 -4 -52 -15
-56 -8 -4 -15 -17 -15 -30 0 -23 -3 -24 -65 -24 l-65 0 0 -80 0 -80 -29 0
c-16 0 -31 6 -35 15 -3 8 -12 15 -21 15 -13 0 -15 25 -15 183 0 101 3 187 7
190 3 4 48 7 100 7 76 0 93 -3 93 -15z m280 1 c0 -8 7 -17 16 -20 9 -3 14 -15
12 -28 -3 -20 -10 -23 -55 -26 l-53 -3 0 -35 c0 -33 1 -34 40 -34 28 0 40 -4
40 -14 0 -8 7 -17 16 -20 9 -3 14 -15 12 -28 -3 -20 -10 -23 -55 -26 l-53 -3
0 -35 c0 -33 1 -34 40 -34 28 0 40 -4 40 -14 0 -8 7 -16 15 -20 8 -3 15 -17
15 -31 0 -25 -1 -25 -85 -25 -66 0 -85 3 -85 14 0 7 -8 16 -18 18 -16 5 -17
20 -16 184 1 98 2 182 3 187 1 4 39 7 86 7 66 0 85 -3 85 -14z"/>
<path d="M1670 1915 c0 -14 -4 -25 -10 -25 -16 0 -13 -149 4 -166 22 -21 36
-17 36 11 0 14 5 25 10 25 15 0 12 142 -4 163 -19 25 -36 21 -36 -8z"/>
<path d="M2201 1825 c0 -115 0 -115 24 -115 17 0 23 4 19 14 -3 7 2 20 10 29
18 18 23 157 6 157 -5 0 -10 7 -10 15 0 9 -9 15 -24 15 -24 0 -24 0 -25 -115z"/>
<path d="M2782 1840 c-10 -17 -10 -20 3 -20 8 0 15 9 15 20 0 11 -1 20 -3 20
-1 0 -8 -9 -15 -20z"/>
<path d="M3310 1906 c0 -34 2 -36 33 -36 30 0 32 3 32 33 0 29 -3 32 -32 35
-32 3 -33 2 -33 -32z"/>
<path d="M290 1996 c0 -3 56 -69 125 -148 69 -78 125 -147 125 -153 -1 -5 -59
-75 -129 -155 l-128 -145 193 -3 c107 -1 282 -1 389 0 l195 3 -50 62 -50 62 0
240 0 241 -335 0 c-184 0 -335 -2 -335 -4z"/>
<path d="M4040 1758 l0 -241 -51 -59 -50 -58 387 0 386 0 -64 73 c-35 39 -94
107 -132 150 l-68 77 66 75 c36 41 96 109 132 150 l66 75 -336 0 -336 0 0
-242z"/>
<path d="M3860 1905 l0 -35 48 0 c54 0 82 -22 82 -65 0 -16 6 -25 15 -25 12 0
15 13 15 55 0 53 -1 55 -26 55 -16 0 -36 11 -50 25 -15 16 -34 25 -54 25 -28
0 -30 -3 -30 -35z"/>
<path d="M1010 1493 c5 -10 21 -31 36 -48 l26 -30 -6 34 c-3 18 -6 40 -6 47 0
9 -11 14 -30 14 -26 0 -29 -2 -20 -17z"/>
<path d="M3930 1468 l0 -41 26 24 c14 13 30 32 35 42 8 15 5 17 -26 17 -34 0
-35 -1 -35 -42z"/>
<path d="M1980 1440 c0 -38 4 -50 15 -50 11 0 15 12 15 50 0 38 -4 50 -15 50
-11 0 -15 -12 -15 -50z"/>
<path d="M2480 1460 c0 -20 5 -30 15 -30 10 0 15 10 15 30 0 20 -5 30 -15 30
-10 0 -15 -10 -15 -30z"/>
<path d="M3160 1469 c0 -15 4 -19 16 -15 9 3 20 6 25 6 5 0 9 7 9 15 0 9 -9
15 -25 15 -19 0 -25 -5 -25 -21z"/>
<path d="M3196 1441 c-4 -7 -5 -15 -2 -18 9 -9 19 4 14 18 -4 11 -6 11 -12 0z"/>
<path d="M3540 1440 c0 -38 4 -50 15 -50 11 0 15 12 15 50 0 38 -4 50 -15 50
-11 0 -15 -12 -15 -50z"/>
</g>
</svg>
